HIERARCHY
ROOT joint_Root
{
	OFFSET 0.0 0.0 0.0
	CHANNELS 6 Xposition Yposition Zposition Zrotation Xrotation Yrotation 
	JOINT Hips
	{
		OFFSET -0.726466 93.3139 -2.00062
		CHANNELS 6 Xposition Yposition Zposition Zrotation Xrotation Yrotation 
		JOINT Spine
		{
			OFFSET 15.7357 0.0 0.0
			CHANNELS 6 Xposition Yposition Zposition Zrotation Xrotation Yrotation 
			JOINT Chest
			{
				OFFSET 8.98455 -0.406207 0.0
				CHANNELS 6 Xposition Yposition Zposition Zrotation Xrotation Yrotation 
				JOINT Neck
				{
					OFFSET 16.3773 0.0 0.0
					CHANNELS 6 Xposition Yposition Zposition Zrotation Xrotation Yrotation 
					JOINT Head
					{
						OFFSET 6.45672 0.0 0.0
						CHANNELS 6 Xposition Yposition Zposition Zrotation Xrotation Yrotation 
						End Site
						{
							OFFSET 0.0 0.0 0.0
						}
					}
				}
				JOINT Shoulder_L
				{
					OFFSET 12.9942 -0.242716 4.98039
					CHANNELS 6 Xposition Yposition Zposition Zrotation Xrotation Yrotation 
					JOINT UpperArm_L
					{
						OFFSET 5.34809 0.0 0.0
						CHANNELS 6 Xposition Yposition Zposition Zrotation Xrotation Yrotation 
						JOINT LowerArm_L
						{
							OFFSET 24.3286 1.87007e-05 0.0
							CHANNELS 6 Xposition Yposition Zposition Zrotation Xrotation Yrotation 
							JOINT Hand_L
							{
								OFFSET 22.2916 0.0 0.0
								CHANNELS 6 Xposition Yposition Zposition Zrotation Xrotation Yrotation 
								End Site
								{
									OFFSET 0.0 0.0 0.0
								}
							}
						}
					}
				}
				JOINT Shoulder_R
				{
					OFFSET 12.9945 -0.242716 -4.98039
					CHANNELS 6 Xposition Yposition Zposition Zrotation Xrotation Yrotation 
					JOINT UpperArm_R
					{
						OFFSET -5.34813 0.0 0.0
						CHANNELS 6 Xposition Yposition Zposition Zrotation Xrotation Yrotation 
						JOINT LowerArm_R
						{
							OFFSET -24.3289 0.000322201 0.0
							CHANNELS 6 Xposition Yposition Zposition Zrotation Xrotation Yrotation 
							JOINT Hand_R
							{
								OFFSET -22.2915 -0.000108084 0.0
								CHANNELS 6 Xposition Yposition Zposition Zrotation Xrotation Yrotation 
								End Site
								{
									OFFSET 0.0 0.0 0.0
								}
							}
						}
					}
				}
			}
		}
		JOINT UpperLeg_L
		{
			OFFSET -2.19248 -6.46944 0.0
			CHANNELS 6 Xposition Yposition Zposition Zrotation Xrotation Yrotation 
			JOINT LowerLeg_L
			{
				OFFSET 39.0811 0.0 -1.23785e-05
				CHANNELS 6 Xposition Yposition Zposition Zrotation Xrotation Yrotation 
				JOINT Foot_L
				{
					OFFSET 40.9854 0.0 -1.26872e-05
					CHANNELS 6 Xposition Yposition Zposition Zrotation Xrotation Yrotation 
					JOINT Toes_L
					{
						OFFSET 11.7543 0.0 0.0
						CHANNELS 6 Xposition Yposition Zposition Zrotation Xrotation Yrotation 
						End Site
						{
							OFFSET 0.0 0.0 0.0
						}
					}
				}
			}
		}
		JOINT UpperLeg_R
		{
			OFFSET -2.19251 6.46944 0.0
			CHANNELS 6 Xposition Yposition Zposition Zrotation Xrotation Yrotation 
			JOINT LowerLeg_R
			{
				OFFSET -39.0811 -0.00228153 -0.0401928
				CHANNELS 6 Xposition Yposition Zposition Zrotation Xrotation Yrotation 
				JOINT Foot_R
				{
					OFFSET -40.9854 0.0 0.0
					CHANNELS 6 Xposition Yposition Zposition Zrotation Xrotation Yrotation 
					JOINT Toes_R
					{
						OFFSET -11.7543 0.0 0.0
						CHANNELS 6 Xposition Yposition Zposition Zrotation Xrotation Yrotation 
						End Site
						{
							OFFSET 0.0 0.0 0.0
						}
					}
				}
			}
		}
	}
}
MOTION
Frames:	4
Frame Time:	0.0333333
0.000000 0.000000 0.000000 0.000000 0.000000 -0.000000 0.467354 92.389100 450.294000 -80.778900 -7.404020 160.050000 15.735700 0.000005 -0.000001 61.395400 82.090300 -56.882200 8.984550 -0.406207 -0.000000 6.483100 -7.601930 9.458560 16.377300 -0.000001 -0.000001 0.104579 0.039598 1.112270 6.456720 -0.000001 -0.000000 -0.935942 5.945440 -4.152220 12.994200 -0.242716 4.980390 -86.804500 -9.011610 -70.382600 5.348090 -0.000007 -0.000001 -69.375200 17.246100 -37.919800 24.328600 0.000019 0.000005 1.988170 -0.730443 -110.136000 22.291600 -0.000001 0.000005 4.166430 5.642190 -14.306800 12.994500 -0.242716 -4.980390 91.571700 -3.840700 -67.722900 -5.348130 -0.000001 -0.000004 -68.809400 26.776800 32.470000 -24.328900 0.000322 -0.000009 1.338160 0.762855 -60.371400 -22.291500 -0.000108 -0.000004 2.056380 5.553330 -8.859170 -2.192480 -6.469440 -0.000000 -163.032000 -16.912100 7.868700 39.081100 -0.000007 -0.000012 0.029694 -0.232881 7.266620 40.985400 -0.000006 -0.000013 -6.066630 5.459780 -28.067000 11.754300 -0.000000 0.000003 -0.011212 -0.112493 -21.161700 -2.192510 6.469440 -0.000001 -173.696000 0.142144 127.361000 -39.081100 -0.002282 -0.040193 0.078088 -0.043112 60.071400 -40.985400 0.000008 0.000006 -8.397520 -7.036140 -65.170900 -11.754300 -0.000006 -0.000006 -0.019276 -0.163246 -23.241300
0.000000 0.000000 0.000000 0.000000 0.000000 -0.000000 0.590206 92.824400 442.660000 -81.449100 -6.240630 160.836000 15.735700 0.000005 -0.000001 59.838700 82.096000 -55.403300 8.984550 -0.406207 -0.000000 6.274420 -7.978160 9.310730 16.377300 -0.000001 -0.000001 -0.068839 0.512207 0.791335 6.456720 -0.000001 -0.000000 -0.759742 6.649000 -4.949290 12.994200 -0.242716 4.980390 -86.662000 -9.510070 -70.556200 5.348090 -0.000007 -0.000001 -69.783400 18.887900 -34.664400 24.328600 0.000019 0.000005 2.573440 -1.286580 -116.546000 22.291600 -0.000001 0.000005 4.110580 5.640530 -14.163600 12.994500 -0.242716 -4.980390 91.689600 -4.226890 -68.188100 -5.348130 -0.000001 -0.000004 -69.601100 25.820900 32.128500 -24.328900 0.000322 -0.000009 -0.383876 -0.168341 -66.146000 -22.291500 -0.000108 -0.000004 0.711598 5.530350 -7.809570 -2.192480 -6.469440 -0.000000 -165.152000 -10.670100 7.841920 39.081100 -0.000007 -0.000012 0.065325 -0.209019 17.355700 40.985400 -0.000006 -0.000013 -0.675239 -1.225400 -28.162900 11.754300 -0.000000 0.000003 -0.007510 -0.083992 -19.996600 -2.192510 6.469440 -0.000001 -173.114000 2.302930 131.198000 -39.081100 -0.002282 -0.040193 -0.019722 0.022803 45.228500 -40.985400 0.000008 0.000006 -11.082400 -2.085190 -65.681000 -11.754300 -0.000006 -0.000006 -0.020669 -0.170968 -23.559500
0.000000 0.000000 0.000000 0.000000 0.000000 -0.000000 0.722051 92.152800 434.629000 -82.592700 -4.838620 163.104000 15.735700 0.000005 -0.000001 62.941600 81.734300 -58.835800 8.984550 -0.406207 -0.000000 7.287200 -7.510490 8.691570 16.377300 -0.000001 -0.000001 -0.698771 0.359153 0.641910 6.456720 -0.000001 -0.000000 -1.459830 7.045780 -5.388150 12.994200 -0.242716 4.980390 -86.923700 -9.399960 -71.785900 5.348090 -0.000007 -0.000001 -70.243600 22.237600 -29.246200 24.328600 0.000019 0.000005 0.002791 -0.001763 -118.258000 22.291600 -0.000001 0.000005 6.775370 5.656240 -15.618200 12.994500 -0.242716 -4.980390 91.066900 -2.716750 -68.550300 -5.348130 -0.000001 -0.000004 -69.222700 24.784200 28.290900 -24.328900 0.000322 -0.000009 -1.211510 -0.449793 -69.605500 -22.291500 -0.000108 -0.000004 1.461740 5.535150 -8.022310 -2.192480 -6.469440 -0.000000 -170.540000 -1.280480 7.245210 39.081100 -0.000007 -0.000012 0.039995 -0.060935 33.278600 40.985400 -0.000006 -0.000013 1.814020 -2.766340 -29.996600 11.754300 -0.000000 0.000003 -0.010814 -0.109633 -21.044600 -2.192510 6.469440 -0.000001 -171.393000 6.054980 136.580000 -39.081100 -0.002282 -0.040193 -0.078358 0.115091 35.352800 -40.985400 0.000008 0.000006 -13.262500 -0.532105 -65.529900 -11.754300 -0.000006 -0.000006 -0.020300 -0.168947 -23.476200
0.000000 0.000000 0.000000 0.000000 0.000000 -0.000000 0.923693 90.006300 426.358000 -82.566800 -2.545350 166.310000 15.735700 0.000005 -0.000001 70.207600 81.331500 -66.195200 8.984550 -0.406207 -0.000000 8.797530 -5.805220 8.470320 16.377300 -0.000001 -0.000001 -0.905076 0.591429 0.416195 6.456720 -0.000001 -0.000000 -2.046910 6.578160 -5.454400 12.994200 -0.242716 4.980390 -87.110000 -8.868390 -71.868400 5.348090 -0.000007 -0.000001 -71.316100 26.989100 -22.680900 24.328600 0.000019 0.000005 -0.758124 0.318350 -112.720000 22.291600 -0.000001 0.000005 8.103240 5.655760 -15.594100 12.994500 -0.242716 -4.980390 90.314700 -0.837370 -69.415700 -5.348130 -0.000001 -0.000004 -68.367600 23.890300 21.372500 -24.328900 0.000322 -0.000009 -0.922089 -0.316893 -71.007300 -22.291500 -0.000108 -0.000004 2.591850 5.550370 -8.720590 -2.192480 -6.469440 -0.000000 -173.362000 -0.594534 3.427680 39.081100 -0.000007 -0.000012 0.006117 -0.004065 56.364900 40.985400 -0.000006 -0.000013 -2.572070 -0.334702 -28.365800 11.754300 -0.000000 0.000003 -0.009425 -0.099301 -20.622000 -2.192510 6.469440 -0.000001 -169.048000 9.020990 141.129000 -39.081100 -0.002282 -0.040193 -0.137590 0.192931 36.137100 -40.985400 0.000008 0.000006 -14.431400 -0.075130 -65.427100 -11.754300 -0.000006 -0.000006 -0.020605 -0.170618 -23.545000
